{
  "accessors": [
    {
      "bufferView": 2,
      "componentType": 5126,
      "count": 65532,
      "max": [
        -2.098599910736084,
        12.791899681091309,
        13.318400382995605
      ],
      "min": [
        -11.71560001373291,
        -0.075300000607967377,
        -13.420200347900391
      ],
      "type": "VEC3"
    },
    {
      "bufferView": 2,
      "byteOffset": 786384,
      "componentType": 5126,
      "count": 65532,
      "max": [
        0.99999833106994629,
        0.99999845027923584,
        0.99998593330383301
      ],
      "min": [
        -0.99999845027923584,
        -1,
        -0.99999034404754639
      ],
      "type": "VEC3"
    },
    {
      "bufferView": 1,
      "componentType": 5126,
      "count": 65532,
      "max": [
        0.99919998645782471,
        0.99910002946853638
      ],
      "min": [
        0.0043000001460313797,
        0.000699999975040555
      ],
      "type": "VEC2"
    },
    {
      "bufferView": 0,
      "componentType": 5125,
      "count": 363606,
      "max": [
        65531
      ],
      "min": [
        0
      ],
      "type": "SCALAR"
    },
    {
      "bufferView": 2,
      "byteOffset": 1572768,
      "componentType": 5126,
      "count": 7088,
      "max": [
        -2.0608999729156494,
        10.838000297546387,
        13.055500030517578
      ],
      "min": [
        -11.029899597167969,
        1.9909000396728516,
        -13.147800445556641
      ],
      "type": "VEC3"
    },
    {
      "bufferView": 2,
      "byteOffset": 1657824,
      "componentType": 5126,
      "count": 7088,
      "max": [
        0.99997627735137939,
        0.99998998641967773,
        0.99893569946289062
      ],
      "min": [
        -0.99997115135192871,
        -0.99973326921463013,
        -0.99948686361312866
      ],
      "type": "VEC3"
    },
    {
      "bufferView": 1,
      "byteOffset": 524256,
      "componentType": 5126,
      "count": 7088,
      "max": [
        0.58630001544952393,
        0.95999997854232788
      ],
      "min": [
        0.030300000682473183,
        0.016100000590085983
      ],
      "type": "VEC2"
    },
    {
      "bufferView": 0,
      "byteOffset": 1454424,
      "componentType": 5125,
      "count": 38070,
      "max": [
        7087
      ],
      "min": [
        0
      ],
      "type": "SCALAR"
    }
  ],
  "asset": {
    "extras": {
      "author": "MamaTeeku (https://sketchfab.com/MamaTeeku)",
      "license": "CC-BY-4.0 (http://creativecommons.org/licenses/by/4.0/)",
      "source": "https://sketchfab.com/3d-models/nike-shoe-d796cf8784fc46169e3ac70375e0e8a8",
      "title": "Nike Shoe"
    },
    "generator": "Sketchfab-10.33.2",
    "version": "2.0"
  },
  "bufferViews": [
    {
      "buffer": 0,
      "byteLength": 1606704,
      "byteOffset": 0,
      "name": "floatBufferViews",
      "target": 34963
    },
    {
      "buffer": 0,
      "byteLength": 580960,
      "byteOffset": 1606704,
      "byteStride": 8,
      "name": "floatBufferViews",
      "target": 34962
    },
    {
      "buffer": 0,
      "byteLength": 1742880,
      "byteOffset": 2187664,
      "byteStride": 12,
      "name": "floatBufferViews",
      "target": 34962
    }
  ],
  "buffers": [
    {
      "byteLength": 3930544,
      "uri": "scene.bin"
    }
  ],
  "materials": [
    {
      "doubleSided": true,
      "name": "aiStandardSurface1",
      "pbrMetallicRoughness": {
        "baseColorFactor": [
          1,
          1,
          1,
          1
        ],
        "metallicFactor": 0,
        "roughnessFactor": 0.59999999999999998
      }
    }
  ],
  "meshes": [
    {
      "name": "RT_AirMax90_aiStandardSurface1_0",
      "primitives": [
        {
          "attributes": {
            "NORMAL": 1,
            "POSITION": 0,
            "TEXCOORD_0": 2
          },
          "indices": 3,
          "material": 0,
          "mode": 4
        }
      ]
    },
    {
      "name": "RT_AirMax90_aiStandardSurface1_0",
      "primitives": [
        {
          "attributes": {
            "NORMAL": 5,
            "POSITION": 4,
            "TEXCOORD_0": 6
          },
          "indices": 7,
          "material": 0,
          "mode": 4
        }
      ]
    }
  ],
  "nodes": [
    {
      "children": [
        1
      ],
      "name": "RootNode (gltf orientation matrix)",
      "rotation": [
        -0.70710678118654746,
        -0,
        -0,
        0.70710678118654757
      ]
    },
    {
      "children": [
        2
      ],
      "name": "RootNode (model correction matrix)"
    },
    {
      "children": [
        3
      ],
      "matrix": [
        1,
        0,
        0,
        0,
        0,
        0,
        1,
        0,
        0,
        -1,
        0,
        0,
        0,
        0,
        0,
        1
      ],
      "name": "b74e257dd37f463ca172d912ef4d23cb.fbx"
    },
    {
      "children": [
        4
      ],
      "name": "RootNode"
    },
    {
      "children": [
        5,
        6
      ],
      "matrix": [
        0.28825181722640991,
        0,
        0,
        0,
        0,
        0.28825181722640991,
        0,
        0,
        0,
        0,
        0.28825181722640991,
        0,
        0,
        0,
        0,
        1
      ],
      "name": "RT_AirMax90"
    },
    {
      "mesh": 0,
      "name": "RT_AirMax90_aiStandardSurface1_0"
    },
    {
      "mesh": 1,
      "name": "RT_AirMax90_aiStandardSurface1_0"
    }
  ],
  "scene": 0,
  "scenes": [
    {
      "name": "OSG_Scene",
      "nodes": [
        0
      ]
    }
  ]
}

